<svg xmlns="http://www.w3.org/2000/svg" width="800" height="500" viewBox="0 0 800 500">
  <rect width="800" height="500" fill="#0c0f1a"/>
  <rect x="40" y="40" width="720" height="420" rx="12" fill="#111827" stroke="#1f2937" stroke-width="1.5"/>
  <rect x="40" y="40" width="720" height="52" rx="12" fill="#065f46"/>
  <rect x="40" y="68" width="720" height="24" fill="#065f46"/>
  <text x="72" y="72" font-family="monospace" font-size="14" fill="#6ee7b7" font-weight="bold">AR MONITORING &amp; WORKING CAPITAL DASHBOARD</text>
  <!-- KPI row -->
  <rect x="60" y="114" width="150" height="70" rx="8" fill="#064e3b" stroke="#059669" stroke-width="1"/>
  <text x="80" y="136" font-family="monospace" font-size="9" fill="#6ee7b7">TOTAL OUTSTANDING</text>
  <text x="80" y="162" font-family="monospace" font-size="20" fill="#ffffff" font-weight="bold">4.2M</text>
  <rect x="222" y="114" width="150" height="70" rx="8" fill="#064e3b" stroke="#059669" stroke-width="1"/>
  <text x="242" y="136" font-family="monospace" font-size="9" fill="#6ee7b7">60+ DAYS</text>
  <text x="242" y="162" font-family="monospace" font-size="20" fill="#ef4444" font-weight="bold">820K</text>
  <rect x="384" y="114" width="150" height="70" rx="8" fill="#064e3b" stroke="#059669" stroke-width="1"/>
  <text x="404" y="136" font-family="monospace" font-size="9" fill="#6ee7b7">AVG CYCLE (DAYS)</text>
  <text x="404" y="162" font-family="monospace" font-size="20" fill="#fbbf24" font-weight="bold">34.2</text>
  <rect x="546" y="114" width="154" height="70" rx="8" fill="#064e3b" stroke="#059669" stroke-width="1"/>
  <text x="566" y="136" font-family="monospace" font-size="9" fill="#6ee7b7">IN DISPUTE</text>
  <text x="566" y="162" font-family="monospace" font-size="20" fill="#f59e0b" font-weight="bold">340K</text>
  <!-- Bar chart: Outstanding by age -->
  <text x="60" y="210" font-family="monospace" font-size="10" fill="#6ee7b7">OUTSTANDING AGE ANALYSIS</text>
  <rect x="100" y="220" width="60" height="100" rx="3" fill="#059669" opacity="0.8"/>
  <text x="112" y="336" font-family="monospace" font-size="8" fill="#94a3b8">0-30d</text>
  <rect x="178" y="240" width="60" height="80" rx="3" fill="#059669" opacity="0.6"/>
  <text x="190" y="336" font-family="monospace" font-size="8" fill="#94a3b8">31-60d</text>
  <rect x="256" y="280" width="60" height="40" rx="3" fill="#ef4444" opacity="0.7"/>
  <text x="268" y="336" font-family="monospace" font-size="8" fill="#94a3b8">61-90d</text>
  <rect x="334" y="295" width="60" height="25" rx="3" fill="#ef4444" opacity="0.9"/>
  <text x="348" y="336" font-family="monospace" font-size="8" fill="#94a3b8">90d+</text>
  <!-- Country breakdown donut placeholder -->
  <circle cx="580" cy="276" r="60" fill="none" stroke="#059669" stroke-width="22" stroke-dasharray="188.5 188.5" stroke-dashoffset="0" transform="rotate(-90 580 276)"/>
  <circle cx="580" cy="276" r="60" fill="none" stroke="#ef4444" stroke-width="22" stroke-dasharray="75 302" stroke-dashoffset="-188.5" transform="rotate(-90 580 276)"/>
  <circle cx="580" cy="276" r="60" fill="none" stroke="#fbbf24" stroke-width="22" stroke-dasharray="38 339" stroke-dashoffset="-264" transform="rotate(-90 580 276)"/>
  <text x="568" y="280" font-family="monospace" font-size="12" fill="#ffffff" font-weight="bold">AR</text>
  <text x="560" y="295" font-family="monospace" font-size="8" fill="#6ee7b7">by country</text>
  <text x="650" y="244" font-family="monospace" font-size="8" fill="#6ee7b7">■ VN 50%</text>
  <text x="650" y="260" font-family="monospace" font-size="8" fill="#ef4444">■ SG 20%</text>
  <text x="650" y="276" font-family="monospace" font-size="8" fill="#fbbf24">■ MY 10%</text>
  <!-- Settlement timeline -->
  <text x="60" y="370" font-family="monospace" font-size="10" fill="#6ee7b7">SETTLEMENT PIPELINE</text>
  <rect x="60" y="380" width="420" height="12" rx="3" fill="#064e3b"/>
  <rect x="60" y="380" width="280" height="12" rx="3" fill="#059669" opacity="0.7"/>
  <text x="348" y="391" font-family="monospace" font-size="8" fill="#94a3b8">67% settled</text>
  <text x="60" y="448" font-family="monospace" font-size="9" fill="#6ee7b7" opacity="0.6">* Visuals use recreated/anonymized data to protect confidential business information.</text>
</svg>