<svg xmlns="http://www.w3.org/2000/svg" width="400" height="250" viewBox="0 0 400 250">
  <rect width="400" height="250" fill="#065f46"/>
  <rect x="12" y="12" width="376" height="226" rx="8" fill="#0c1a14"/>
  <rect x="12" y="12" width="376" height="34" rx="8" fill="#065f46"/>
  <rect x="12" y="34" width="376" height="12" fill="#065f46"/>
  <text x="28" y="33" font-family="monospace" font-size="8" fill="#6ee7b7" font-weight="bold">AR MONITORING &amp; WORKING CAPITAL</text>
  <rect x="24" y="55" width="78" height="42" rx="4" fill="#064e3b"/>
  <text x="34" y="70" font-family="monospace" font-size="6" fill="#6ee7b7">OUTSTANDING</text>
  <text x="34" y="86" font-family="monospace" font-size="13" fill="#fff" font-weight="bold">4.2M</text>
  <rect x="112" y="55" width="78" height="42" rx="4" fill="#064e3b"/>
  <text x="122" y="70" font-family="monospace" font-size="6" fill="#6ee7b7">60+ DAYS</text>
  <text x="122" y="86" font-family="monospace" font-size="13" fill="#ef4444" font-weight="bold">820K</text>
  <rect x="200" y="55" width="78" height="42" rx="4" fill="#064e3b"/>
  <text x="210" y="70" font-family="monospace" font-size="6" fill="#6ee7b7">AVG CYCLE</text>
  <text x="210" y="86" font-family="monospace" font-size="13" fill="#fbbf24" font-weight="bold">34.2d</text>
  <rect x="288" y="55" width="88" height="42" rx="4" fill="#064e3b"/>
  <text x="298" y="70" font-family="monospace" font-size="6" fill="#6ee7b7">IN DISPUTE</text>
  <text x="298" y="86" font-family="monospace" font-size="13" fill="#f59e0b" font-weight="bold">340K</text>
  <text x="24" y="116" font-family="monospace" font-size="8" fill="#6ee7b7">AGE ANALYSIS</text>
  <rect x="44" y="122" width="40" height="60" rx="2" fill="#059669" opacity="0.7"/>
  <text x="52" y="196" font-family="monospace" font-size="6" fill="#94a3b8">0-30d</text>
  <rect x="96" y="138" width="40" height="44" rx="2" fill="#059669" opacity="0.5"/>
  <text x="104" y="196" font-family="monospace" font-size="6" fill="#94a3b8">31-60d</text>
  <rect x="148" y="156" width="40" height="26" rx="2" fill="#ef4444" opacity="0.6"/>
  <text x="156" y="196" font-family="monospace" font-size="6" fill="#94a3b8">61-90d</text>
  <rect x="200" y="166" width="40" height="16" rx="2" fill="#ef4444" opacity="0.9"/>
  <text x="210" y="196" font-family="monospace" font-size="6" fill="#94a3b8">90d+</text>
  <circle cx="320" cy="158" r="40" fill="none" stroke="#059669" stroke-width="14" stroke-dasharray="125 125" stroke-dashoffset="0" transform="rotate(-90 320 158)"/>
  <circle cx="320" cy="158" r="40" fill="none" stroke="#ef4444" stroke-width="14" stroke-dasharray="50 200" stroke-dashoffset="-125" transform="rotate(-90 320 158)"/>
  <circle cx="320" cy="158" r="40" fill="none" stroke="#fbbf24" stroke-width="14" stroke-dasharray="25 225" stroke-dashoffset="-175" transform="rotate(-90 320 158)"/>
  <text x="309" y="162" font-family="monospace" font-size="9" fill="#fff">AR</text>
  <text x="24" y="220" font-family="monospace" font-size="7" fill="#6ee7b7">Settlement Pipeline</text>
  <rect x="24" y="224" width="220" height="8" rx="2" fill="#064e3b"/>
  <rect x="24" y="224" width="148" height="8" rx="2" fill="#059669" opacity="0.7"/>
  <text x="24" y="240" font-family="monospace" font-size="6" fill="#6ee7b7" opacity="0.5">Power BI · Google Sheets · NetSuite Data</text>
</svg>