<svg xmlns="http://www.w3.org/2000/svg" width="400" height="250" viewBox="0 0 400 250">
  <rect width="400" height="250" fill="#0f4c75"/>
  <rect x="12" y="12" width="376" height="226" rx="8" fill="#16213e"/>
  <rect x="12" y="12" width="376" height="34" rx="8" fill="#0f4c75"/>
  <rect x="12" y="34" width="376" height="12" fill="#0f4c75"/>
  <text x="28" y="33" font-family="monospace" font-size="9" fill="#7ec8e3" font-weight="bold">CLAIMBACK COCKPIT</text>
  <rect x="24" y="60" width="80" height="44" rx="4" fill="#0a2a4a"/>
  <text x="36" y="78" font-family="monospace" font-size="7" fill="#7ec8e3">CLAIMS</text>
  <text x="36" y="94" font-family="monospace" font-size="14" fill="#fff" font-weight="bold">1,248</text>
  <rect x="116" y="60" width="80" height="44" rx="4" fill="#0a2a4a"/>
  <text x="128" y="78" font-family="monospace" font-size="7" fill="#7ec8e3">PENDING</text>
  <text x="128" y="94" font-family="monospace" font-size="14" fill="#ffd166" font-weight="bold">87</text>
  <rect x="208" y="60" width="80" height="44" rx="4" fill="#0a2a4a"/>
  <text x="220" y="78" font-family="monospace" font-size="7" fill="#7ec8e3">EXCEPTIONS</text>
  <text x="220" y="94" font-family="monospace" font-size="14" fill="#ef4444" font-weight="bold">23</text>
  <rect x="300" y="60" width="80" height="44" rx="4" fill="#0a2a4a"/>
  <text x="312" y="78" font-family="monospace" font-size="7" fill="#7ec8e3">SETTLED</text>
  <text x="312" y="94" font-family="monospace" font-size="14" fill="#00d4aa" font-weight="bold">1,138</text>
  <rect x="24" y="120" width="352" height="16" rx="3" fill="#0f4c75" opacity="0.5"/>
  <text x="32" y="132" font-family="monospace" font-size="7" fill="#7ec8e3">BRAND · PERIOD · ACCRUAL · INVOICE · STATUS · FLAG</text>
  <rect x="24" y="138" width="352" height="14" rx="2" fill="#0a2a4a"/>
  <text x="32" y="149" font-family="monospace" font-size="7" fill="#fff">Brand A - VN · Jun 2025 · 120K · 118.5K</text>
  <rect x="312" y="140" width="40" height="10" rx="2" fill="#00d4aa" opacity="0.3"/>
  <text x="318" y="149" font-family="monospace" font-size="7" fill="#00d4aa">Settled</text>
  <rect x="24" y="154" width="352" height="14" rx="2" fill="#16213e"/>
  <text x="32" y="165" font-family="monospace" font-size="7" fill="#fff">Brand B - SG · Jun 2025 · 85K</text>
  <rect x="280" y="156" width="60" height="10" rx="2" fill="#ef4444" opacity="0.3"/>
  <text x="284" y="165" font-family="monospace" font-size="7" fill="#ef4444">Missing Inv.</text>
  <rect x="24" y="170" width="352" height="14" rx="2" fill="#0a2a4a"/>
  <text x="32" y="181" font-family="monospace" font-size="7" fill="#fff">Brand C - MY · May 2025 · 200K · 200K</text>
  <rect x="300" y="172" width="40" height="10" rx="2" fill="#ffd166" opacity="0.3"/>
  <text x="306" y="181" font-family="monospace" font-size="7" fill="#ffd166">Pending</text>
  <text x="24" y="220" font-family="monospace" font-size="6" fill="#7ec8e3" opacity="0.5">VN · SG · MY · ID · PH · TH</text>
  <text x="24" y="234" font-family="monospace" font-size="6" fill="#7ec8e3" opacity="0.4">Google Sheets · Apps Script · NetSuite</text>
</svg>