<svg xmlns="http://www.w3.org/2000/svg" width="400" height="250" viewBox="0 0 400 250">
  <rect width="400" height="250" fill="#581c87"/>
  <rect x="12" y="12" width="376" height="226" rx="8" fill="#0d0a14"/>
  <rect x="12" y="12" width="376" height="34" rx="8" fill="#581c87"/>
  <rect x="12" y="34" width="376" height="12" fill="#581c87"/>
  <text x="28" y="33" font-family="monospace" font-size="8" fill="#e9d5ff" font-weight="bold">FINANCE DATA ARCHITECTURE</text>
  <rect x="310" y="16" width="70" height="16" rx="3" fill="#7c3aed" opacity="0.5"/>
  <text x="316" y="28" font-family="monospace" font-size="7" fill="#e9d5ff">⚗ Prototype</text>
  <text x="24" y="60" font-family="monospace" font-size="7" fill="#a78bfa">SOURCES</text>
  <rect x="24" y="66" width="70" height="22" rx="4" fill="#3f3f46" stroke="#6d28d9" stroke-width="0.8"/>
  <text x="40" y="80" font-family="monospace" font-size="7" fill="#e4e4e7">Sheets</text>
  <rect x="102" y="66" width="70" height="22" rx="4" fill="#3f3f46" stroke="#6d28d9" stroke-width="0.8"/>
  <text x="118" y="80" font-family="monospace" font-size="7" fill="#e4e4e7">NetSuite</text>
  <rect x="180" y="66" width="70" height="22" rx="4" fill="#3f3f46" stroke="#6d28d9" stroke-width="0.8"/>
  <text x="196" y="80" font-family="monospace" font-size="7" fill="#e4e4e7">AR Reports</text>
  <line x1="59" y1="90" x2="59" y2="106" stroke="#7c3aed" stroke-width="1" stroke-dasharray="3"/>
  <line x1="137" y1="90" x2="137" y2="106" stroke="#7c3aed" stroke-width="1" stroke-dasharray="3"/>
  <line x1="215" y1="90" x2="215" y2="106" stroke="#7c3aed" stroke-width="1" stroke-dasharray="3"/>
  <text x="24" y="104" font-family="monospace" font-size="7" fill="#a78bfa">INGESTION</text>
  <rect x="24" y="108" width="260" height="22" rx="4" fill="#4c1d95" stroke="#7c3aed" stroke-width="0.8"/>
  <text x="78" y="122" font-family="monospace" font-size="7" fill="#e9d5ff">Python Scheduler → BigQuery / Parquet</text>
  <line x1="154" y1="132" x2="154" y2="148" stroke="#7c3aed" stroke-width="1" stroke-dasharray="3"/>
  <text x="24" y="146" font-family="monospace" font-size="7" fill="#a78bfa">STORAGE</text>
  <rect x="24" y="150" width="120" height="22" rx="4" fill="#4c1d95" stroke="#7c3aed" stroke-width="0.8"/>
  <text x="58" y="164" font-family="monospace" font-size="7" fill="#e9d5ff">BigQuery</text>
  <rect x="154" y="150" width="70" height="22" rx="4" fill="#3f3f46" stroke="#6d28d9" stroke-width="0.8"/>
  <text x="165" y="164" font-family="monospace" font-size="7" fill="#e4e4e7">DuckDB</text>
  <rect x="234" y="150" width="70" height="22" rx="4" fill="#3f3f46" stroke="#6d28d9" stroke-width="0.8"/>
  <text x="245" y="164" font-family="monospace" font-size="7" fill="#e4e4e7">Parquet</text>
  <line x1="84" y1="174" x2="84" y2="190" stroke="#7c3aed" stroke-width="1" stroke-dasharray="3"/>
  <text x="24" y="188" font-family="monospace" font-size="7" fill="#a78bfa">OUTPUT</text>
  <rect x="24" y="192" width="90" height="22" rx="4" fill="#4c1d95" stroke="#7c3aed" stroke-width="0.8"/>
  <text x="46" y="206" font-family="monospace" font-size="7" fill="#e9d5ff">Dashboard</text>
  <rect x="124" y="192" width="90" height="22" rx="4" fill="#3f3f46" stroke="#6d28d9" stroke-width="0.8"/>
  <text x="148" y="206" font-family="monospace" font-size="7" fill="#e4e4e7">Power BI</text>
  <rect x="290" y="60" width="96" height="168" rx="6" fill="#1c1c20"/>
  <text x="300" y="80" font-family="monospace" font-size="7" fill="#a78bfa">GOALS</text>
  <text x="300" y="98" font-family="monospace" font-size="6" fill="#e4e4e7">• Consolidate</text>
  <text x="300" y="114" font-family="monospace" font-size="6" fill="#e4e4e7">• Automate</text>
  <text x="300" y="130" font-family="monospace" font-size="6" fill="#e4e4e7">• Partition</text>
  <text x="300" y="146" font-family="monospace" font-size="6" fill="#e4e4e7">• Faster</text>
  <text x="300" y="162" font-family="monospace" font-size="6" fill="#e4e4e7">  queries</text>
  <text x="24" y="234" font-family="monospace" font-size="6" fill="#a78bfa" opacity="0.5">BigQuery · DuckDB · Python · Power BI</text>
</svg>