<svg xmlns="http://www.w3.org/2000/svg" width="400" height="250" viewBox="0 0 400 250">
  <rect width="400" height="250" fill="#1e40af"/>
  <rect x="12" y="12" width="376" height="226" rx="8" fill="#0f172a"/>
  <rect x="12" y="12" width="376" height="34" rx="8" fill="#1e40af"/>
  <rect x="12" y="34" width="376" height="12" fill="#1e40af"/>
  <text x="28" y="33" font-family="monospace" font-size="9" fill="#bfdbfe" font-weight="bold">GL ANALYSIS ENGINE</text>
  <rect x="24" y="60" width="80" height="24" rx="4" fill="#1e40af" opacity="0.6"/>
  <text x="36" y="76" font-family="monospace" font-size="7" fill="#bfdbfe">GL Export</text>
  <line x1="106" y1="72" x2="124" y2="72" stroke="#60a5fa" stroke-width="1" stroke-dasharray="3"/>
  <polygon points="122,69 128,72 122,75" fill="#60a5fa"/>
  <rect x="130" y="60" width="80" height="24" rx="4" fill="#1e40af" opacity="0.6"/>
  <text x="142" y="76" font-family="monospace" font-size="7" fill="#bfdbfe">DuckDB Parse</text>
  <line x1="212" y1="72" x2="230" y2="72" stroke="#60a5fa" stroke-width="1" stroke-dasharray="3"/>
  <polygon points="228,69 234,72 228,75" fill="#60a5fa"/>
  <rect x="236" y="60" width="70" height="24" rx="4" fill="#1e40af" opacity="0.6"/>
  <text x="248" y="76" font-family="monospace" font-size="7" fill="#bfdbfe">Rules</text>
  <line x1="308" y1="72" x2="326" y2="72" stroke="#60a5fa" stroke-width="1" stroke-dasharray="3"/>
  <polygon points="324,69 330,72 324,75" fill="#60a5fa"/>
  <rect x="332" y="60" width="56" height="24" rx="4" fill="#ef4444" opacity="0.4"/>
  <text x="340" y="76" font-family="monospace" font-size="7" fill="#fca5a5">Flags</text>
  <rect x="24" y="98" width="168" height="18" rx="3" fill="#ef4444" opacity="0.15" stroke="#ef4444" stroke-width="0.5"/>
  <text x="34" y="110" font-family="monospace" font-size="7" fill="#fca5a5">⚠ Missing Reversals</text>
  <rect x="204" y="98" width="168" height="18" rx="3" fill="#ef4444" opacity="0.15" stroke="#ef4444" stroke-width="0.5"/>
  <text x="214" y="110" font-family="monospace" font-size="7" fill="#fca5a5">⚠ Incorrect Accounts</text>
  <rect x="24" y="120" width="168" height="18" rx="3" fill="#fbbf24" opacity="0.15" stroke="#fbbf24" stroke-width="0.5"/>
  <text x="34" y="132" font-family="monospace" font-size="7" fill="#fcd34d">⚠ Accrual Mismatch</text>
  <rect x="204" y="120" width="168" height="18" rx="3" fill="#fbbf24" opacity="0.15" stroke="#fbbf24" stroke-width="0.5"/>
  <text x="214" y="132" font-family="monospace" font-size="7" fill="#fcd34d">⚠ Wrong Period</text>
  <rect x="24" y="152" width="352" height="70" rx="5" fill="#0a0f1e"/>
  <text x="36" y="170" font-family="monospace" font-size="8" fill="#60a5fa">import duckdb</text>
  <text x="36" y="186" font-family="monospace" font-size="8" fill="#7dd3fc">con = duckdb.connect()</text>
  <text x="36" y="202" font-family="monospace" font-size="8" fill="#86efac">issues = con.execute(</text>
  <text x="36" y="218" font-family="monospace" font-size="7" fill="#fbbf24">  "SELECT * FROM gl WHERE flag = 1"</text>
  <text x="24" y="240" font-family="monospace" font-size="6" fill="#60a5fa" opacity="0.5">Python · DuckDB · Pandas · NetSuite GL</text>
</svg>